<svg xmlns="http://www.w3.org/2000/svg" viewBox="0 0 100 100">
  <g fill="#f0f0f0">
    <rect x="44" y="12" width="12" height="18" rx="3"/>
    <rect x="44" y="12" width="12" height="18" rx="3" transform="rotate(45 50 50)"/>
    <rect x="44" y="12" width="12" height="18" rx="3" transform="rotate(90 50 50)"/>
    <rect x="44" y="12" width="12" height="18" rx="3" transform="rotate(135 50 50)"/>
    <rect x="44" y="12" width="12" height="18" rx="3" transform="rotate(180 50 50)"/>
    <rect x="44" y="12" width="12" height="18" rx="3" transform="rotate(225 50 50)"/>
    <rect x="44" y="12" width="12" height="18" rx="3" transform="rotate(270 50 50)"/>
    <rect x="44" y="12" width="12" height="18" rx="3" transform="rotate(315 50 50)"/>
  </g>
  <circle cx="50" cy="50" r="26" fill="none" stroke="#f0f0f0" stroke-width="11"/>
</svg>
